<?xml version="1.0" encoding="UTF-8"?>
<svg id="Layer_1" data-name="Layer 1" xmlns="http://www.w3.org/2000/svg" viewBox="0 0 384 407">
  <defs>
    <style>
      .cls-1 {
        fill: #fdfdfe;
      }

      .cls-2 {
        fill: #dde7fa;
      }

      .cls-3 {
        fill: #417ae6;
      }

      .cls-4 {
        fill: #3470e3;
      }

      .cls-5 {
        fill: #3873e4;
      }

      .cls-6 {
        fill: #3571e4;
      }
    </style>
  </defs>
  <path class="cls-1" d="M0,0h384v407H0V0ZM225.01,69.74l1.23.47c-3.31,4.39-7.83,11.92-6.95,17.15,3.69,8.55,7.68,16.75,9.99,25.81,2.33,9.11,2.86,21.37-4.1,27.23.94-3.45,3.15-5.54,3.77-9.05-6.12,2.15-11,4.6-14.65,9.93-6.09,8.9-19.53,8.17-25.37,1.39-1.72-1.99-1.55-3.92-.19-5.93,6.15-9.12,3.99-19.13-.46-19.98-8.02-1.52-16.34-1.05-24.34.65-2.2,1.58-3.73,4.86-4.64,7.17-1,2.53-2.1,2.6-4.29,3.45-11.59,4.53-22.66,10.08-33.28,16.16l-.65-.21c.29-1.64.07-3.3-1.12-4.56l-.02-.36c.53.37,1.2.14,1.37-.39,1.39-4.25,5.6-5.28,10.64-4.87,1.08-1.45,2.18-2.64,3.93-3.95-3.62-6.51-11.79-9.21-18.49-5.99-4.61,2.22-6.88,7.15-5.93,11.82,2.27.06,3.85.83,5.58,1.42l-.18.72c-2.81-1.32-5.66-1.01-8.3.72-4.04,2.64-5.86,7.54-3.59,11.96.68,1.32,1.74,2.32,2.98,2.72.21.07.43.26.69.44-.7.77-.7,2.21-.42,3.14-.57.21-.46.9-.6,1.23-3.72,8.09-7.95,15.9-10.16,25.15,3.82-4.11,8.52-5.7,14.1-5.18.41-3.77,1.24-7.18,2.15-10.72l3.17-12.34c-1.2,0-2.41.32-3.41.72l-.14-.74c2-.74,3.81-1.9,5.97-2.19l.37.75c-.85.27-1.36.58-2.22,1.26,9.01,4.59,15.49,12.14,20.4,20.79,1.21,2.13,4.93,1.46,6.56,1.06,2.74-.67,4.86.59,7.96.77-7.32-11.65-13.4-17.75-25.39-23.82v-.67s1.55-.07,1.55-.07c-.06,1.03.89.75.92.09,6.4-.83,12.63-2.42,19.16-3.75,4.23-.86,7.9-2.75,12-4.04,4.87-1.52,9.56,1.49,12.35,5.43s5.18,7.92,8.65,11.32c9.5,9.3,19.36,8.28,30.68,2.46,1.89-.97,3.33-.81,5.12.23,9.99,5.83,21.02,7.9,32.12,7.41l.06.91c-.14-.13-.78.43-.63.6,4.2,4.93,9.14,9.32,12.56,14.94l4.67,12.91c2.05,5.67,7.42,15.5,13.01,17.62-.01-1.43-1.97-2.32-.59-4.06,3.08,6.08,8.93,8.34,14.59,5.8-2.07-.6-3.71-.54-5.32-1.89.89-.76,2.29-.69,3.16-.93-2.83-2.91-7.23-2.2-10.39-3.43-3.23-3.37-4.15-8.44-5.91-12.68l-3.96-14.12c-2.94-5.59-8.13-9.6-11.99-14.81l2.68-3.56c5.45.86,10.57-.66,14.97-3.78,6.84,2.42,13.45.19,18.01-4.99,1.93-2.19,5.12-3.1,6.5-6-2.1-.04-4.34.04-6.41-.78,1.84-2.43,3.16-4.66,2.59-7.66-4.91,2.65-9.72,4.33-15.04,4.04-3.01-4.59-7.38-7.94-12.49-8.5-.09-.26-.07-.39-.22-.72,2.25-1.93,4.07-4.96,5.26-7.62.24-.11.72-.25.86-.47.18-.31-.04-.72-.26-.73l-.74-.03-.39.04-.27-1.02c2.01-2.25,3.64-5.48,3.43-8.34-.33-.15-.28-.52-.25-.67-.14-.79.48-1.24,1.07-1.86,3.67-3.8,6.35-8.3,7.39-13.45-.9.07-1.86-.06-2.11-.62,1.9-3.11,3.26-6.85,1.89-10.41-5.88,1.11-11.63,2.3-17.5,2.09,10.83-4.53,20.39-9.99,28.53-17.85,1.12-1.08,2.09-2.25,1.76-3.9-1.98.1-3.56.72-5.28,1.37l-20.68,7.79c-1.69.64-3.31,1.27-5.2.63l10.31-4,23.54-9.41c-5.99-6.21-19.31-5.76-28.07-5.95l10.02-5.67c7.94-4.49,24.41-13.16,26.6-20.92.21-.75.15-1.54-.28-2.11-.31-.4-1.05-.63-1.87-.47-10.26,1.94-19.72,5.6-28.9,10.48-3.77,2-7.19,4.27-11.47,5.54l16.91-18c2.25-2.4,4.3-4.89,4.94-8.36-1.6-.92-3.57-.67-5.27,0-4.99,1.93-9.94,3.69-14.49,6.56l-14.73,9.32-.61-1.09c3.17-2.38,7.39-4.07,9.92-7.11,2.74-3.3,4.05-7.66,5.88-11.84-19,5.23-38.08,16.79-50.61,31.01-6.29,7.13-11.6,14.73-14.64,23.82-.56,1.68-1.61,4.1-1.11,5.87,4.14,5.41,6.89,11.12,9.97,17.14,5.39,10.55,8.22,21.77,6.61,33.77,3.67-1.78,6.15-3.19,9.46-4.36.36-5,.44-9.64-.74-14.39-2.44-9.84-6.57-18.76-10.26-28.17-1.24-3.17,1.15-7.35,2.19-10.04,1.21-3.14,3.01-5.14,4.79-7.66ZM103.82,141.25c-4.44-1.62-7.91-.37-11.94,1.15,3.17-4.27,8.23-5.41,12.79-3.43.81.35,2.63-1.03,2.26-1.8-3.24-6.73-13.82-4.27-18.51,1.27-4.15,4.89-4.45,11.94-1.37,17.83l4.72-5.98c2.6-3.3,6.93-3.62,11.18-2.9-.26-1.97.32-3.85.87-6.12ZM133.02,207.88c-1.01.03-1.63-.34-1.99-.15-.42.22-.86.69-1.07,1.25l-1.89,5.05c2.29,3.52,5.68,5.97,9.8,7.01,2.13-1.36,4.15-1.03,6,.45,3.17-3.11,5.63-7.82,4.91-12.44-1.4-8.93-4.32-17.47-7.34-25.9.82-.76,1.76-.04,2.17.8,3.83,7.94,5.6,16.21,6.78,25.38,8.06-4.24,9.08-14.44,6.69-22.42-2.16-7.2-9.49-11.13-16.61-8.62-6.76-6.01-13.44-5.28-21.85-3.81-3.12.55-4.68,3.25-7.1,4.37-2.93,1.36-6.84.14-9.88,2.38-4.55,3.35-8.24,8.73-8.19,14.74s3.04,11.46,7.67,15.14c2.05-9.85,3.05-19.56,8.67-27.97-2.39,10.14-6.34,19.46-6.8,29.89-.15,3.5,3.29,6.82,5.54,8.62,2.69-2.54,5.16-1.4,7.15.15,4.09-.88,8.05-3.89,10.63-7.1-1.34-2.53-1.89-4.49-2.61-6.97-1.25.22-2.11.54-3.24.41-.81-1.82.1-4.1,1.94-4.76,4.14-1.48,10.4-.89,11.39,2.09.22.67-.03,2.37-.76,2.39ZM152.04,238.63c-.4-.93.27-1.91.65-2.79,1.56-3.66.35-9.67-2.82-9.9.7,4.41.46,8.4-1.17,12.73,1.11.56,2.05.33,2.95.4-.73,1.71-2.78,1.39-4.51,1.56-1.12.1-2.34,1.55-3.26.93l-2.53-1.71c-1.41-.15-2.74.81-4.39.05-.94-.43-1.6-1.73-2.39-2.96-.93.64-2.11,1.75-3.12,1.35s-2.15-.93-2.68-2.18c-2.06-4.88-.78-12.37,2.64-13.48.95-.31,1.89.16,2.84.64.63.32,1.65-.5,1.78-1.47-3.34-.43-6.5-1.87-8.61-5.29-1.76,2.17-3.62,3.29-6.3,4.35,5.03,3.74,5.67,12.96,3.24,15.94-1.46,1.79-3.67.85-5.32.33-1.16,1.05-2.53,2.47-4.32,2.16-1.47-.25-2.99-.64-4.38-2.15-2.06,1.44-4.25,1.78-6.08-.3-2.02,1.54-4.43,1.29-5.93-.77-2.09-4.03-1.89-9.1.54-12.91.5,1.25,0,2.12-.53,3.17-.76,1.46-1.15,8.22,2.32,9.99.7.35,1.71.21,2.25-.18.44-.32.19-1.24.88-2.4.43,1.12.75,2.36,1.9,3.08.72.45,1.61.32,2.28-.07.55-.32,1.12-1.18,1.04-2.24l-.73-10.9c-.07-1.03-1.25-1.64-1.96-1.52-3.62.63-2.61,6.81-2.95,12.08-1.41-3.57-1.01-7.27-.18-11.35l-3.59.28c.06-.93,1.39-1.39,2.05-2.09-.6-2.85-1.12-5.85-1.32-8.78-3.58-2.96-5.65-6.58-8.24-10.58-4.5,8.14-7.13,16.8-6.61,25.84.49,8.58,2.81,17.15,8.13,23.93,8.5,10.85,22.27,15.84,35.85,14.62,7.53-.68,14.39-2.76,20.22-7.4,4.15-3.3,7.92-7.22,10.57-11.88,5.24-9.22,5.78-20.03,3.19-30.11-1.32-5.14-1.94-10.11-4.91-14.7-1.8,4.46-4.51,7.71-8.39,9.63-.22,4.07-1.09,7.68-4.23,10.35,2.09-.21,2.75,1.49,3.87,2.19,2.68,1.66,4.12,3.65,4.37,6.94.2,2.73.05,5.79-2.1,7.59ZM116.31,237.6c3.84-2.15,1.24-15.61-4.05-15.76-3.24-.1-2.76,7.23-1.63,12.55.52,2.45,3.31,4.54,5.68,3.21ZM121.69,236.49c3.74.51,3.64-8.74-.55-13.12-1.1-1.15-2.59-1.62-4.1-.7,3.07,5.61,1.22,13.36,4.65,13.82ZM139.4,222.13c-5.74,1.71-5.06,15.69-.59,16.15,4.2.43,6.76-17.99.59-16.15ZM145.77,223.45c-2.12.23-.92,6.26-2.81,14.03-.31,1.26.88,2.43,1.78,2.47,4.86.24,5.51-17,1.03-16.5ZM134.26,235.92c-1.64-5.85,1.13-10.76-.76-11.64-2.32-1.07-5.84,5.57-2.95,10.59.79,1.38,2.31,2.2,3.72,1.04ZM244.58,274.63l-.88-3.15H91.1c-2.33-.01-4.03,1.31-5.22,3.3l158.38-.03c.79.03,1.34.39,1.44,1.09.51,3.34,2.92,5.83,3.9,8.9.55,1.72,1.2,3.58,2.06,5.03.72,3.63-.37,7.65,1.7,11.2l-2.09.96c1.26.06,2.61-.18,2.9.47l.84,1.89-8.15,3.28c.88,1.01,1.66-.05,2.42-.21l6.92-1.6c.85.83,2.38,1.81,3.27,2.95l1.02,2.37c-.97.03-2.3.45-2.68,1.66-.43,1.37-.24,3.05.21,4.22l-1.01-.05c-.52-1.6-2.3-3.41-3.72-3.38-.49.01-1.39.32-1.48,1.18-.08.79.08,2.16.44,2.73.06,2.01-1.37-.23-2.44.09-1.49.45-.74,4.24,1.96,6.15.7.49,1.73.25,2.04-.16.47-.62.36-1.49-.24-2.28-.76-.19-.67-1.37.39-.99,1.04,1.7,2.63,2.87,4.57,2.33-.04.1-.03.25-.02.35-.84.6-1.12,1.36-1.14,2.57l-.28,25.5c-.03,2.39-3.04,3.1-4.87,4.68l15.46-.24c-1.1-1.28-3.7-1.86-3.97-3.6l.1-18.2c.02-3.75,5.67-14.01,13.12-10.92,2.31.96,3.94,3.46,3.96,6.42l.15,21.35c.02,2.35-1.13,3.72-3.35,5.27h12.76c-2.17-1.79-2.62-3.06-2.64-5.26l-.11-19.35c-.02-3.78-1.87-6.96-4.24-9.4,3.45-1.44,4.88-5.26,4.41-8.63-.13-.91-1.15-1.33-1.7-1.38-1.7-.14-2.22,1.51-3.77,2.58-.45-.87-.91-1.56-1.56-1.84.18-.82.71-1.44,1.26-2.01l1.25-.13c-.03.34-.42.62-.28,1.32,2.08-.53,3.75-2.08,4.52-3.73l2.36-1.99,7.99,1.16c-2.24-1.61-4.45-2.03-6.55-3.16.48-.44.45-1.82,1.59-1.9l5.64.9c-1.52-1.72-3.7-1.44-5.62-1.51,1.04-2.6,2.04-5.82,1.44-8.85-.49-2.46,1.05-3.53,1.57-5.28.68-2.29,1.3-3.75,2.51-5.77,3.57-5.94,4.01-13.29,2.62-20.27l-7.39,4.98c-3.38,2.63-6.79,4.93-8.97,9.07-6.99-4.3-15.92-4.64-23.11-.24-4.64-5.69-9.96-10.39-16.64-13.74-1.09,4.16-.81,8.18.12,12.17.13.55-.25,1.1-.56,1.13ZM212.82,354.11c5.14-2.81,7.38-8.02,6.5-13.61-.67-4.25-2.65-8.08-5.37-11.47l-14.24-17.74c-5.46-6.8-12.82-18.02-10.24-25.71,1.11-3.3,3.72-4.83,6.92-5.35,3.88-.62,6.96.7,8.63,4.35,3.09,6.74,1.47,12.97,6.51,14.18,1.47.35,5.14-.23,5.05-2.57-.31-8.67-7.12-16.64-15.76-18.29-5.22-1-10.72.73-14.99,3.38-4.72,2.92-6.39,8.39-5.11,13.6,1.14,4.63,3.02,8.81,5.77,12.66l12.3,17.18c4,5.58,8.11,10.83,10.81,17.15,1.36,3.18.79,6.8-1.02,9.4-1.9,2.72-5.07,3.88-8.6,3.79-8.34-.2-11.82-5.58-12.99-13.55-.38-2.6-2.39-4.18-4.66-3.8-2.43.4-4,2.66-3.26,5.33,1.89,6.89,7.61,12.05,14.66,13.73,6.44,1.53,13.16.59,19.09-2.65ZM109.67,353.84c-2.58-2.65-5.08-3.31-7.66-5.05l-1.19-24.39c7.33-1.88,14.12-4.49,19.73-9.23,8.82-7.47,9.48-19.96,1.38-28.19-4.95-5.03-11.73-7.34-18.92-7.49-4.92-.1-9.73.51-13.84,3.16-1.84,1.18-3.87,2.49-3.75,5.01,2.62-1.91,4.62-3.9,7.69-4.71v64.99s-9.35,5.11-9.35,5.11l25.92.79ZM173.82,355.88c-2.03-2.11-2.4-4.19-2.78-6.51-.99-6.09-1.14-12.13-.95-18.37l.64-21.64,7.98-.09c.1-.72.09-1.35-.04-1.92h-7.7s.1-10.77.1-10.77l-9.55.05c1.39,1.15,2.58,2.45,2.57,4.36l-.04,6.37-5.49.24c-.38.06-.38,1.79,0,1.8l5.57.17-.36,43.13c-.93,1.74-3.37,2.17-4.9,3.25l14.95-.08ZM295.21,321.9c-.15-1.16-1.97-.63-3.12-.23.5-1.82,1.94-3.29,1.06-4.94-1.24-2.34-7.98,2.26-6.93,6.57.3,1.22,2.56.41,3.22.58.21.61-.18,2.21.42,2.46,2.54,1.07,5.62-2.31,5.34-4.44ZM247.29,346.9c5.24-7,5.51-16.76.9-23.99-3.8-5.95-11.14-8.4-17.28-4.96-9.22,5.17-11.54,21.26-3.48,30.07,2.74,3,6.31,4.59,10.24,4.37,3.63-.2,6.99-1.98,9.61-5.48ZM144.99,352.47c-3.24,1.77-6.58.31-8.08-2.96-1.78-3.88-2.38-8.13-2.07-12.49l23.11-.49c.68-9.65-3.82-17.37-13.43-18.17-5.51-.46-10.34,1.54-13.55,6.22-7.29,10.61-4.83,26.61,5.46,29.45s22.44-4.08,20.97-12.45c-.31-1.79-2.59-2.17-4.03-1.92-5.43.92-.75,8.65-8.37,12.82ZM297.45,382.48c.21-.98-.04-1.92-.72-2.43-1.85-1.36-6.55,2.92-10.97-.8-2.72-2.3-2.52-6.16-.45-8.99s5.37-4.28,8.87-4.67l9.35-1.04c4.31-.48,7-3.46,7.83-7.68,1.34-6.81-3.17-13.72-10.4-14.15-4.36-.26-8.52,1.56-12.07,3.58-.02,2.52-.42,4.47.53,6.7,3.57-5.09,9.54-6.54,14.31-3.21,1.17.82,1.87,2.45,2.2,3.75.88,3.51-1.3,6.33-4.7,6.8l-11.34,1.6c-4.9.69-9.23,3.65-11.28,8.04-3.05,6.55.15,13.42,6.92,15.51,5.47,1.69,11.1.86,11.92-2.99ZM241.33,362.22l44.62-.43c3.38-.03,7.27-1.63,10.56-3.36l-201.36-.1c-3.86,0-7.71.77-9.99,3.76l151.73.02c1.6-.82,2.72-1.08,4.45.11ZM245.04,383.4c3.02-4.25,2.65-9.29.64-13.54-1.63-3.44-4.95-5.4-8.6-5.35l-.86-.87-.69.94c-1.84.77-3.78,1.24-5.05,2.97-3.6,4.88-3.67,11.86.39,16.64,3.63,4.28,10.85,3.9,14.17-.78ZM132.42,367.47c.16-1.49,4.99-2.42,5.43-.86l1.33,17.42c.07.94-.85,1.48-1.74,1.8,2.04.38,4.25.5,6.65,0-.83-.45-3-.51-3.36-1.62l-.89-15.14,12.72,18.21,1.26-20.32,4.89-1.59-8.85-.62c.72,1.24,1.82,1.11,2.66,1.77l-1.05,13.85-10.27-13.58c1.03-.72,1.69-1,2.24-1.69l-17.03.47,2.65,1.51c.38,5.5-.02,10.85-1.28,16.14-.33,1.4-1.29,2.03-2.53,2.9,3.23.8,5.13-1.72,5.96-4.34,1.48-4.7.65-9.37,1.19-14.29ZM250,385.82c2.75.42,4.63.47,6.51-.04-1.04-.34-2.87-.58-3.41-1.36l-1.03-15.76,12.89,18.62,1.31-20.35,4.93-1.59-8.84-.61c.58,1.21,1.53,1.1,2.58,1.55l-1.1,14-10.27-13.56c1.15-.55,1.72-.77,2-1.78l-7.1.27c.53.98,1.29,1.01,2.1,1.37l.9,16.47c.03.59.39,1.66-.1,1.95l-1.36.8ZM183.71,382.44l5.36-.37c.7,1.03.93,2.13.64,3.57-.33.56-1.45.83-2.36,1.83l10.24-1c-1.25-.81-3.12-.69-3.47-2.07l-4.52-17.78c1.36-.45,2.33-.17,3.1-1.31l-9.34.27,3.83,1.52-7.27,17.32-3,2,7.76-.74c-.67-1.23-1.96-.74-2.65-1.03-.96-.41-.39-1.19-.15-1.54.27-.39.83-.59,1.84-.66ZM104.13,366.14c-1.23.04-2.58-.61-4.01.38,1.54.9,2.74.4,4.01.49l-.86,17.08c-.05.99-1.54,1.47-2.35,2.24l10.08-.68c-1.02-1.02-2.14-.86-3.37-1.42-.22-1.53-.7-3.65.07-5.1.47-.9,2.6-.24,2.98.46.51.94.52,2.09.72,3.49,1.05-2.45,1.47-4.79,2.06-7.8-2.02,1.38-3.5,2.65-6.17,2.59l-.21-11.02c1.91.02,4.07.25,5.69,1.4,1.83,1.29,1.33,3.63,1.36,5.81,1.12-2.28,1.03-4.55,1.83-7.43,1.21.18,2.34.57,3.29,1.35-.83,7.07-1.64,17.79,4.43,18.07-4.98-3.63-3.74-11.58-3.03-18.29,1.04-.54,1.93-.52,2.36-1.65-2.92.67-5.41-.37-8.04-.29l-10.83.32ZM172.69,382.46c3.03-2.51,4.23-6.1,3.29-9.64-1.87-7.04-8.6-8.74-15.57-6.54l1.49.6c.2.08.24.62.23,1.06l-.31,18.6c3.74-.28,7.62-1.39,10.88-4.09ZM206.16,386.08c-5.53-5.79-4.84-15.99.52-20.68-3.11-.22-5.31,1.66-6.68,4.08-2.53,4.48-2.16,9.94,1,14.01,1.31,1.68,3.26,3.11,5.16,2.59ZM213.21,369.22c-.34-2.51-2.79-4.47-5.35-3.81,2.44,1.82,1.75,4.31,3.51,4.9.5.17,1.96-.16,1.84-1.09ZM226.96,385.81c-1.39-1.23-2.45-1.09-3.72-1.79l.11-16.53c0-1.1,2.09-1.38,2.74-1.85l-9.68-.02,3.49,1.53-.31,17.37-2.24,2,9.61-.7ZM215.01,382.04c.28-1.13-.17-1.96-.87-2.25-.44-.18-1.73-.11-1.82.38.4,2.92-1.27,4.88-4.12,5.77,3.22.84,5.64-1.47,6.8-3.9Z"/>
  <g>
    <g>
      <g>
        <path class="cls-4" d="M277.04,121.98c-1.51-.1-2.7,1.09-4.01,2.05-2.27,1.66-4.82,3.08-5.48,6.13,3.41-2.64,6.05-5.61,9.74-7.5.2,2.87-1.43,6.1-3.43,8.34-1.71,1.91-4.83,2.55-5.85,5.7,2.35-1.3,4.27-3.05,6.12-4.68l.39-.04.14,1.23c-1.19,2.66-3.02,5.69-5.26,7.62l-6.77,5.82c3.32-.79,5.11-3.27,6.99-5.1,5.11.56,9.48,3.91,12.49,8.5,5.32.29,10.14-1.39,15.04-4.04.57,3-.75,5.23-2.59,7.66,2.07.82,4.31.74,6.41.78-1.38,2.91-4.57,3.81-6.5,6-4.56,5.19-11.17,7.42-18.01,4.99-4.4,3.12-9.52,4.64-14.97,3.78l-2.68,3.56c3.86,5.21,9.05,9.22,11.99,14.81l3.96,14.12c1.76,4.24,2.67,9.3,5.91,12.68,3.16,1.22,7.55.52,10.39,3.43-.87.24-2.27.17-3.16.93,1.61,1.35,3.25,1.29,5.32,1.89-5.66,2.54-11.51.29-14.59-5.8-1.38,1.74.58,2.64.59,4.06-5.59-2.11-10.96-11.95-13.01-17.62l-4.67-12.91c-3.42-5.62-8.35-10.01-12.56-14.94-.15-.17.5-.73.63-.6.33,1.69,3.3.61,4.06,1.36l11.35,12.71c2.42,8.48,4.44,16.69,8.7,24.37.67,1.2,1.56,2.11,2.93,1.4l-4.27-8.14-4.26-15.67c-4.31-5.78-9.11-10.73-14.23-15.75-1.58-.03-3.18-.47-4.34-1.19-11.11.49-22.14-1.58-32.12-7.41-1.79-1.04-3.23-1.2-5.12-.23-11.32,5.82-21.19,6.84-30.68-2.46-3.47-3.4-5.83-7.33-8.65-11.32s-7.48-6.96-12.35-5.43c-4.1,1.28-7.77,3.17-12,4.04-6.53,1.33-12.76,2.92-19.16,3.75-.27-.4-.61-.11-.92-.09l-1.55.07c-2.94-2.2-4.29-2.15-7.69-.14-2.16.29-3.98,1.45-5.97,2.19l-5.11,1.88c-.28-.93-.28-2.37.42-3.14,1.45-1.61,3.14-3.13,5.13-4.4l7.94-5.06c10.62-6.08,21.69-11.63,33.28-16.16,2.19-.86,3.29-.92,4.29-3.45.91-2.31,2.43-5.58,4.64-7.17,8-1.7,16.31-2.18,24.34-.65,4.45.85,6.61,10.86.46,19.98-1.35,2.01-1.53,3.94.19,5.93,5.84,6.78,19.28,7.51,25.37-1.39,3.65-5.34,8.53-7.78,14.65-9.93-.62,3.51-2.82,5.6-3.77,9.05,6.96-5.86,6.43-18.13,4.1-27.23-2.32-9.06-6.3-17.26-9.99-25.81-.88-5.23,3.64-12.77,6.95-17.15,7.91-10.48,17.32-19.64,27.93-27.42l14.73-9.32c4.55-2.88,9.5-4.63,14.49-6.56,1.7-.66,3.66-.91,5.27,0-.63,3.46-2.68,5.96-4.94,8.36l-16.91,18c4.28-1.28,7.7-3.54,11.47-5.54,9.19-4.88,18.65-8.54,28.9-10.48.81-.15,1.55.07,1.87.47.44.56.5,1.36.28,2.11-2.19,7.75-18.65,16.42-26.6,20.92l-10.02,5.67c8.76.18,22.07-.26,28.07,5.95l-23.54,9.41-10.31,4c1.89.64,3.51,0,5.2-.63l20.68-7.79c1.72-.65,3.29-1.27,5.28-1.37.33,1.65-.64,2.82-1.76,3.9-8.14,7.86-17.7,13.32-28.53,17.85,5.86.2,11.61-.98,17.5-2.09,1.37,3.56,0,7.3-1.89,10.41.25.56,1.21.69,2.11.62-1.04,5.15-3.73,9.65-7.39,13.45-.6.62-1.22,1.07-1.07,1.86ZM281.9,99.46c-4.93,4.5-8.96,8.4-15.41,10.32,3.8,2.32,13.28-6.58,15.41-10.32ZM283.12,108.31c.43-.78-.63-1.25-.99-.75-4.16,5.65-9.72,9-15.77,12.45,6.86-1.71,12.27-6.17,16.76-11.7ZM173.02,126.83c0-1.69-1.37-3.05-3.05-3.05s-3.05,1.37-3.05,3.05,1.37,3.05,3.05,3.05,3.05-1.37,3.05-3.05Z"/>
        <path class="cls-6" d="M253.55,41.7c-9.82,7.36-21.54,18.11-28.55,28.03-1.78,2.52-3.57,4.52-4.79,7.66-1.04,2.7-3.43,6.88-2.19,10.04,3.69,9.41,7.83,18.34,10.26,28.17,1.18,4.75,1.1,9.4.74,14.39-3.31,1.17-5.79,2.58-9.46,4.36,1.61-12-1.22-23.23-6.61-33.77-3.08-6.02-5.83-11.74-9.97-17.14-.5-1.78.55-4.2,1.11-5.87,3.04-9.09,8.36-16.69,14.64-23.82,12.53-14.22,31.61-25.78,50.61-31.01-1.84,4.18-3.14,8.54-5.88,11.84-2.53,3.04-6.75,4.74-9.92,7.11Z"/>
        <path class="cls-2" d="M249.6,172.87l-.06-.91c1.16.73,2.77,1.17,4.34,1.19,5.12,5.01,9.92,9.96,14.23,15.75l4.26,15.67,4.27,8.14c-1.37.71-2.26-.2-2.93-1.4-4.26-7.68-6.28-15.89-8.7-24.37l-11.35-12.71c-.76-.75-3.74.33-4.06-1.36Z"/>
        <path class="cls-2" d="M253.55,41.7l.61,1.09c-10.61,7.78-20.02,16.94-27.93,27.42l-1.23-.47c7-9.92,18.73-20.67,28.55-28.03Z"/>
        <path class="cls-2" d="M274.11,132.02c-1.85,1.63-3.76,3.37-6.12,4.68,1.02-3.15,4.14-3.79,5.85-5.7l.27,1.02Z"/>
        <path class="cls-2" d="M269.38,140.83c.16.33.13.46.22.72-1.88,1.83-3.67,4.31-6.99,5.1l6.77-5.82Z"/>
        <path class="cls-2" d="M274.64,133.21l-.14-1.23.74.03c.22,0,.44.42.26.73-.13.22-.62.37-.86.47Z"/>
        <path class="cls-2" d="M277.04,121.98c-.03.16-.09.52.25.67-3.69,1.9-6.33,4.86-9.74,7.5.67-3.05,3.22-4.47,5.48-6.13,1.31-.96,2.5-2.15,4.01-2.05Z"/>
        <circle class="cls-1" cx="169.97" cy="126.83" r="3.05"/>
        <path class="cls-2" d="M283.12,108.31c-4.49,5.53-9.89,9.99-16.76,11.7,6.05-3.45,11.6-6.8,15.77-12.45.37-.5,1.42-.03.99.75Z"/>
        <path class="cls-2" d="M281.9,99.46c-2.13,3.74-11.6,12.64-15.41,10.32,6.44-1.92,10.48-5.82,15.41-10.32Z"/>
      </g>
      <g>
        <path class="cls-6" d="M99.6,223.1c-.32-.36-.73-.11-.73.06-2.43,3.81-2.63,8.88-.54,12.91,1.5,2.06,3.91,2.31,5.93.77,1.83,2.09,4.03,1.74,6.08.3,1.39,1.52,2.91,1.91,4.38,2.15,1.8.3,3.16-1.12,4.32-2.16,1.65.52,3.86,1.46,5.32-.33,2.43-2.98,1.79-12.2-3.24-15.94,2.69-1.07,4.54-2.19,6.3-4.35,2.12,3.43,5.28,4.86,8.61,5.29-.13.97-1.15,1.79-1.78,1.47-.95-.48-1.9-.95-2.84-.64-3.42,1.12-4.7,8.6-2.64,13.48.53,1.25,1.7,1.8,2.68,2.18s2.19-.71,3.12-1.35c.79,1.23,1.46,2.53,2.39,2.96,1.64.76,2.98-.21,4.39-.05l2.53,1.71c.92.62,2.14-.82,3.26-.93,1.73-.16,3.78.15,4.51-1.56l.4-.44c2.15-1.79,2.31-4.85,2.1-7.59-.25-3.28-1.68-5.28-4.37-6.94-1.12-.69-1.78-2.39-3.87-2.19,3.14-2.66,4.01-6.27,4.23-10.35,3.88-1.92,6.59-5.17,8.39-9.63,2.97,4.59,3.59,9.56,4.91,14.7,2.59,10.08,2.05,20.89-3.19,30.11-2.64,4.65-6.42,8.58-10.57,11.88-5.83,4.64-12.69,6.72-20.22,7.4-13.58,1.22-27.35-3.77-35.85-14.62-5.31-6.78-7.64-15.35-8.13-23.93-.52-9.05,2.11-17.71,6.61-25.84,2.59,3.99,4.66,7.62,8.24,10.58.2,2.93.73,5.94,1.32,8.78-.66.69-1.99,1.16-2.05,2.09Z"/>
        <path class="cls-6" d="M133.02,207.88c.73-.02.99-1.72.76-2.39-.99-2.97-7.26-3.56-11.39-2.09-1.84.66-2.74,2.94-1.94,4.76,1.13.13,2-.19,3.24-.41.72,2.48,1.28,4.44,2.61,6.97-2.58,3.21-6.55,6.22-10.63,7.1-1.99-1.54-4.46-2.69-7.15-.15-2.25-1.8-5.69-5.12-5.54-8.62.46-10.43,4.42-19.75,6.8-29.89-5.61,8.41-6.62,18.12-8.67,27.97-4.63-3.68-7.63-9.37-7.67-15.14s3.65-11.39,8.19-14.74c3.04-2.24,6.95-1.02,9.88-2.38,2.42-1.12,3.98-3.83,7.1-4.37,8.41-1.48,15.09-2.21,21.85,3.81,7.12-2.51,14.45,1.42,16.61,8.62,2.39,7.98,1.38,18.18-6.69,22.42-1.18-9.18-2.95-17.44-6.78-25.38-.41-.84-1.35-1.56-2.17-.8,3.02,8.43,5.94,16.97,7.34,25.9.72,4.62-1.74,9.33-4.91,12.44-1.85-1.48-3.88-1.81-6-.45-4.12-1.03-7.51-3.49-9.8-7.01l1.89-5.05c.21-.56.65-1.03,1.07-1.25.36-.19.98.18,1.99.15ZM138.25,199.42c2.66-.19,3.6-2.91,2.94-4.89-.57-1.73-2.38-3.65-4.43-2.79-1.82.76-2.15,2.71-1.82,4.48.23,1.22,1.11,3.36,3.3,3.2ZM117.56,195.31c-.31-1.66-1.04-2.54-2.13-2.97-.98-.39-2.3.05-3.2.92-1.13,1.1-1.25,2.65-.87,4.13.27,1.04,1.3,2.67,2.82,2.8,2.46.21,3.85-2.37,3.38-4.88Z"/>
        <path class="cls-5" d="M126.99,153.54c11.98,6.07,18.07,12.17,25.39,23.82-3.1-.19-5.22-1.44-7.96-.77-1.63.4-5.35,1.07-6.56-1.06-4.92-8.65-11.39-16.2-20.4-20.79.85-.68,1.36-.99,2.22-1.26,2.39-.76,3.44-1.91,7.32.06Z"/>
        <path class="cls-5" d="M103.82,141.25c-.55,2.28-1.13,4.15-.87,6.12-4.24-.72-8.57-.4-11.18,2.9l-4.72,5.98c-3.08-5.88-2.78-12.93,1.37-17.83,4.69-5.54,15.26-8.01,18.51-1.27.37.77-1.45,2.15-2.26,1.8-4.57-1.97-9.62-.83-12.79,3.43,4.04-1.52,7.5-2.76,11.94-1.15Z"/>
        <path class="cls-5" d="M107.62,158.03l5.85-2.37c1-.4,2.21-.72,3.41-.72l-3.17,12.34c-.91,3.54-1.75,6.96-2.15,10.72-5.58-.52-10.28,1.08-14.1,5.18,2.21-9.26,6.44-17.06,10.16-25.15Z"/>
        <path class="cls-5" d="M119.93,139.07c-.58-1.01-1.8-1.58-2.9-1.96-1.72-.59-3.31-1.36-5.58-1.42-.95-4.68,1.32-9.6,5.93-11.82,6.7-3.23,14.87-.52,18.49,5.99-1.75,1.31-2.85,2.5-3.93,3.95-5.05-.41-9.25.62-10.64,4.87-.18.53-.84.76-1.37.39ZM129.5,129.34c-5.63-1.46-13.09.74-13.25,6.1,4.14-3.68,8.16-5.48,13.25-6.1Z"/>
        <path class="cls-6" d="M116.86,137.83c1,.47,1.93,1.39,3.09,1.6,1.19,1.25,1.41,2.92,1.12,4.56-4.75,2.48-9.34,5.39-13.12,9.24-1.24-.39-2.3-1.39-2.98-2.72-2.27-4.42-.45-9.31,3.59-11.96,2.64-1.73,5.49-2.03,8.3-.72Z"/>
        <path class="cls-5" d="M116.31,237.6c-2.37,1.33-5.16-.76-5.68-3.21-1.13-5.33-1.61-12.65,1.63-12.55,5.29.16,7.89,13.62,4.05,15.76Z"/>
        <path class="cls-5" d="M139.4,222.13c6.17-1.84,3.61,16.58-.59,16.15-4.48-.46-5.15-14.44.59-16.15Z"/>
        <path class="cls-5" d="M145.77,223.45c4.48-.49,3.83,16.74-1.03,16.5-.9-.04-2.08-1.21-1.78-2.47,1.88-7.77.68-13.8,2.81-14.03Z"/>
        <path class="cls-5" d="M98.87,223.17c0-.17.41-.42.73-.06l3.59-.28c-.83,4.08-1.22,7.78.18,11.35.34-5.26-.67-11.44,2.95-12.08.72-.13,1.9.49,1.96,1.52l.73,10.9c.07,1.06-.5,1.92-1.04,2.24-.67.39-1.56.52-2.28.07-1.15-.72-1.47-1.95-1.9-3.08-.7,1.16-.45,2.08-.88,2.4-.54.4-1.56.54-2.25.18-3.47-1.77-3.07-8.53-2.32-9.99.54-1.05,1.03-1.92.53-3.17Z"/>
        <path class="cls-5" d="M121.69,236.49c-3.43-.47-1.58-8.22-4.65-13.82,1.51-.92,3-.45,4.1.7,4.19,4.38,4.3,13.63.55,13.12Z"/>
        <path class="cls-5" d="M134.26,235.92c-1.4,1.15-2.92.33-3.72-1.04-2.89-5.02.63-11.67,2.95-10.59,1.89.87-.88,5.78.76,11.64Z"/>
        <path class="cls-3" d="M152.04,238.63l-.4.44c-.91-.07-1.84.16-2.95-.4,1.63-4.33,1.87-8.32,1.17-12.73,3.18.23,4.38,6.23,2.82,9.9-.38.89-1.05,1.86-.65,2.79Z"/>
        <path class="cls-2" d="M126.99,152.87v.67c-3.88-1.96-4.92-.82-7.32-.06l-.37-.75c3.4-2.01,4.75-2.06,7.69.14Z"/>
        <path class="cls-2" d="M113.33,154.92l.14.74-5.85,2.37c.15-.32.03-1.02.6-1.23l5.11-1.88Z"/>
        <path class="cls-2" d="M119.93,139.07l.02.36c-1.16-.21-2.1-1.13-3.09-1.6l.18-.72c1.1.38,2.32.96,2.9,1.96Z"/>
        <path class="cls-2" d="M121.72,144.2l-7.94,5.06c-2,1.27-3.68,2.8-5.13,4.4-.26-.18-.48-.37-.69-.44,3.78-3.84,8.37-6.76,13.12-9.24l.65.21Z"/>
        <path class="cls-2" d="M129.46,152.89c-.03.66-.98.94-.92-.09.31-.01.65-.31.92.09Z"/>
        <path class="cls-1" d="M117.56,195.31c.46,2.5-.92,5.08-3.38,4.88-1.52-.13-2.55-1.76-2.82-2.8-.38-1.47-.27-3.03.87-4.13.9-.87,2.23-1.31,3.2-.92,1.09.43,1.83,1.31,2.13,2.97Z"/>
        <path class="cls-1" d="M138.25,199.42c-2.2.16-3.07-1.98-3.3-3.2-.34-1.77,0-3.72,1.82-4.48,2.05-.86,3.85,1.07,4.43,2.79.66,1.98-.28,4.7-2.94,4.89Z"/>
        <path class="cls-2" d="M129.5,129.34c-5.08.62-9.11,2.41-13.25,6.1.15-5.36,7.62-7.56,13.25-6.1Z"/>
      </g>
    </g>
    <g>
      <path class="cls-5" d="M212.82,354.11c-5.93,3.24-12.65,4.19-19.09,2.65-7.05-1.68-12.77-6.84-14.66-13.73-.73-2.66.84-4.92,3.26-5.33,2.27-.38,4.28,1.21,4.66,3.8,1.18,7.97,4.65,13.35,12.99,13.55,3.53.08,6.69-1.07,8.6-3.79s2.38-6.22,1.02-9.4c-2.7-6.32-6.81-11.57-10.81-17.15l-12.3-17.18c-2.76-3.85-4.63-8.03-5.77-12.66-1.28-5.21.39-10.67,5.11-13.6,4.27-2.64,9.77-4.37,14.99-3.38,8.64,1.65,15.45,9.61,15.76,18.29.08,2.34-3.58,2.92-5.05,2.57-5.04-1.21-3.42-7.44-6.51-14.18-1.67-3.65-4.76-4.97-8.63-4.35-3.2.51-5.81,2.04-6.92,5.35-2.58,7.69,4.78,18.92,10.24,25.71l14.24,17.74c2.72,3.39,4.7,7.22,5.37,11.47.88,5.59-1.35,10.8-6.5,13.61Z"/>
      <path class="cls-5" d="M109.67,353.84l-25.92-.79,9.34-5.11v-64.99c-3.07.81-5.07,2.8-7.68,4.71-.12-2.52,1.92-3.83,3.75-5.01,4.1-2.64,8.92-3.26,13.84-3.16,7.19.15,13.97,2.45,18.92,7.49,8.1,8.23,7.44,20.72-1.38,28.19-5.6,4.75-12.4,7.35-19.73,9.23l1.19,24.39c2.58,1.74,5.08,2.4,7.66,5.05ZM117.96,298.25c-.89-9.99-10.15-16.65-19.36-16.44l2.07,40.79c10.17-3.23,18.3-12.91,17.29-24.35Z"/>
      <path class="cls-3" d="M244.58,274.63c.04.12-.07.27-.33.12l-158.38.03c1.19-2,2.9-3.32,5.22-3.32h152.61s.88,3.16.88,3.16Z"/>
      <path class="cls-5" d="M144.99,352.47c7.62-4.17,2.95-11.89,8.37-12.82,1.44-.24,3.71.13,4.03,1.92,1.47,8.37-10.67,15.29-20.97,12.45s-12.75-18.83-5.46-29.45c3.22-4.68,8.04-6.68,13.55-6.22,9.61.8,14.11,8.52,13.43,18.17l-23.11.49c-.3,4.36.29,8.6,2.07,12.49,1.5,3.26,4.84,4.73,8.08,2.96ZM150.97,334.4c.62-6.82-2.01-14.41-7.23-14.61-5.53-.21-8.85,8.17-8.96,14.65l16.19-.04Z"/>
      <path class="cls-5" d="M247.29,346.9c-2.63,3.5-5.99,5.28-9.61,5.48-3.94.22-7.5-1.37-10.24-4.37-8.06-8.81-5.74-24.9,3.48-30.07,6.14-3.44,13.48-.99,17.28,4.96,4.61,7.23,4.35,17-.9,23.99ZM240.82,348.04c1.45-1.84,2.26-3.94,2.62-6.16,1.33-8.39.99-22.67-6.45-23.02-7.78-.36-8.48,14.66-7.01,23.61.38,2.29,1.43,4.46,2.95,6.07,2.25,2.39,5.78,2.2,7.9-.49Z"/>
      <path class="cls-5" d="M173.82,355.88l-14.95.08c1.53-1.08,3.97-1.51,4.9-3.25l.36-43.13-5.57-.17c-.38-.01-.38-1.75,0-1.8l5.49-.24.04-6.37c.01-1.91-1.18-3.21-2.57-4.36l9.55-.05-.1,10.76h7.7c.13.57.14,1.21.04,1.92l-7.98.09-.64,21.64c-.18,6.24-.04,12.29.95,18.37.38,2.32.74,4.4,2.78,6.51Z"/>
      <path class="cls-3" d="M289.95,305.94c.54-.46.84-1.47,1.43-2.01,2.1,1.13,4.32,1.56,6.55,3.16l-7.99-1.16Z"/>
      <path class="cls-3" d="M255,304.3c.23.51.82,1.1,1.19,1.47l-6.92,1.6c-.77.17-1.54,1.23-2.42.21l8.15-3.28Z"/>
      <path class="cls-2" d="M292.97,302.03c-.02-.17-.05-.44.02-.61,1.93.07,4.1-.21,5.62,1.51l-5.64-.9Z"/>
      <path class="cls-1" d="M117.96,298.25c1.01,11.44-7.12,21.12-17.29,24.35l-2.07-40.79c9.2-.22,18.47,6.44,19.36,16.44Z"/>
      <path class="cls-1" d="M150.97,334.4l-16.19.04c.11-6.48,3.43-14.86,8.96-14.65,5.22.2,7.86,7.8,7.23,14.61Z"/>
      <path class="cls-1" d="M240.82,348.04c-2.12,2.7-5.65,2.88-7.9.49-1.51-1.61-2.57-3.78-2.95-6.07-1.47-8.95-.77-23.97,7.01-23.61,7.45.35,7.79,14.63,6.45,23.02-.35,2.22-1.17,4.32-2.62,6.16Z"/>
      <g>
        <path class="cls-4" d="M241.33,362.22c-1.73-1.19-2.85-.93-4.45-.11l-151.73-.02c2.28-2.99,6.13-3.76,9.99-3.76l201.36.1c-3.28,1.73-7.17,3.32-10.56,3.36l-44.62.43Z"/>
        <path class="cls-5" d="M297.45,382.48c-.82,3.85-6.46,4.68-11.92,2.99-6.77-2.09-9.97-8.96-6.92-15.51,2.05-4.39,6.38-7.35,11.28-8.04l11.34-1.6c3.4-.48,5.59-3.29,4.7-6.8-.33-1.3-1.03-2.93-2.2-3.75-4.76-3.33-10.73-1.87-14.31,3.21-.95-2.23-.55-4.18-.53-6.7,3.55-2.02,7.71-3.84,12.07-3.58,7.22.43,11.73,7.35,10.4,14.15-.83,4.23-3.53,7.2-7.83,7.68l-9.35,1.04c-3.51.39-6.82,1.86-8.87,4.67s-2.27,6.69.45,8.99c4.42,3.73,9.12-.56,10.97.8.69.51.93,1.45.72,2.43Z"/>
        <path class="cls-3" d="M132.42,367.47c-.53,4.92.29,9.59-1.19,14.29-.83,2.62-2.73,5.14-5.96,4.34,1.24-.88,2.19-1.5,2.53-2.9,1.25-5.29,1.66-10.64,1.28-16.14l-2.65-1.51,17.03-.47c-.55.69-1.21.97-2.24,1.69l10.27,13.58,1.05-13.85c-.84-.66-1.94-.53-2.66-1.77l8.85.62-4.89,1.59-1.26,20.32-12.72-18.21.89,15.14c.35,1.11,2.53,1.18,3.36,1.62-2.4.5-4.61.38-6.65,0,.89-.31,1.81-.85,1.74-1.8l-1.33-17.42c-.45-1.56-5.27-.63-5.43.86Z"/>
        <path class="cls-3" d="M245.04,383.4c-3.32,4.68-10.54,5.07-14.17.78-4.05-4.78-3.99-11.76-.39-16.64,1.27-1.72,3.21-2.19,5.05-2.97l.69-.94.86.87c3.65-.05,6.97,1.91,8.6,5.35,2.02,4.26,2.38,9.29-.64,13.54ZM240.87,367.2c-.64-1.12-1.81-1.79-2.83-1.97-3.47-.6-5.07,3.66-5.86,7.95-1.17,6.37,1.19,13.3,5.08,13.28,5-.02,8.2-11.24,3.61-19.26Z"/>
        <path class="cls-3" d="M104.12,367.01v-.87s10.84-.32,10.84-.32c2.63-.08,5.12.97,8.04.29-.43,1.13-1.32,1.12-2.36,1.65-.71,6.71-1.95,14.65,3.03,18.29-6.06-.28-5.26-11-4.43-18.07-.95-.78-2.09-1.17-3.29-1.35-.8,2.88-.71,5.15-1.83,7.43-.03-2.18.47-4.52-1.36-5.81-1.62-1.15-3.78-1.38-5.69-1.4l.21,11.02c2.66.06,4.14-1.21,6.17-2.59-.59,3.01-1.01,5.35-2.06,7.8-.2-1.41-.21-2.56-.72-3.49-.38-.7-2.5-1.36-2.98-.46-.76,1.45-.29,3.56-.07,5.1,1.23.56,2.35.39,3.37,1.42l-10.08.68c.82-.77,2.3-1.25,2.35-2.24l.86-17.08Z"/>
        <path class="cls-3" d="M250,385.82l1.36-.8c.49-.29.13-1.36.1-1.95l-.9-16.47c-.8-.36-1.56-.4-2.1-1.37l7.1-.27c-.28,1-.85,1.23-2,1.78l10.27,13.56,1.1-14c-1.06-.45-2-.35-2.58-1.55l8.84.61-4.93,1.59-1.31,20.35-12.89-18.62,1.03,15.76c.54.77,2.37,1.01,3.41,1.36-1.88.51-3.76.46-6.51.04Z"/>
        <path class="cls-3" d="M172.69,382.46c-3.26,2.7-7.14,3.81-10.88,4.09l.31-18.6c0-.44-.03-.98-.23-1.06l-1.49-.6c6.97-2.2,13.7-.5,15.57,6.54.94,3.54-.26,7.12-3.29,9.64ZM172.44,372.81c-.42-4.54-3.93-7.49-8.16-6.56l1.42,18.58c5.21-2.05,7.22-6.74,6.74-12.02Z"/>
        <path class="cls-3" d="M183.71,382.44c-1.01.07-1.57.27-1.84.66-.24.36-.81,1.14.15,1.54.69.29,1.98-.2,2.65,1.03l-7.76.74,3-2,7.27-17.32-3.83-1.52,9.34-.27c-.76,1.15-1.74.86-3.1,1.31l4.52,17.78c.35,1.38,2.22,1.26,3.47,2.07l-10.24,1c.91-.99,2.03-1.27,2.36-1.83.3-1.44.06-2.54-.64-3.57l-5.36.37ZM189.37,381.07l-1.99-11.33-4.83,11.82c2.73.05,4.67.27,6.82-.48Z"/>
        <path class="cls-3" d="M226.96,385.81l-9.61.7,2.24-2,.31-17.37-3.49-1.53,9.68.02c-.65.47-2.73.76-2.74,1.85l-.11,16.53c1.27.7,2.33.56,3.72,1.79Z"/>
        <path class="cls-3" d="M206.16,386.08c-1.9.52-3.85-.91-5.16-2.59-3.17-4.07-3.54-9.53-1-14.01,1.37-2.42,3.57-4.3,6.68-4.08-5.36,4.69-6.05,14.88-.52,20.68Z"/>
        <path class="cls-3" d="M215.01,382.04c-1.16,2.43-3.59,4.74-6.8,3.9,2.85-.89,4.52-2.84,4.12-5.77.09-.49,1.38-.57,1.82-.38.7.29,1.15,1.12.87,2.25Z"/>
        <path class="cls-3" d="M213.21,369.22c.13.92-1.34,1.25-1.84,1.09-1.77-.59-1.07-3.08-3.51-4.9,2.56-.66,5.01,1.31,5.35,3.81Z"/>
        <path class="cls-2" d="M104.13,366.14v.87c-1.28-.09-2.47.42-4.01-.49,1.44-1,2.78-.35,4.01-.38Z"/>
        <path class="cls-1" d="M240.87,367.2c4.59,8.02,1.39,19.24-3.61,19.26-3.89.02-6.25-6.9-5.08-13.28.78-4.29,2.39-8.55,5.86-7.95,1.02.18,2.19.84,2.83,1.97Z"/>
        <path class="cls-1" d="M172.44,372.81c.49,5.28-1.53,9.97-6.74,12.02l-1.42-18.58c4.23-.93,7.74,2.02,8.16,6.56Z"/>
        <path class="cls-1" d="M189.37,381.07c-2.15.76-4.08.53-6.82.48l4.83-11.82,1.99,11.33Z"/>
      </g>
      <g>
        <path class="cls-5" d="M258.5,322.93c.86-1.03,2.02-1.22,3.46-1.59.68-.17,1.26-1.44,1.91-1.41-.01,1.8-.41,3.56.28,5.99,3.19-4.31,7.92-6.89,12.98-5.65l.51-.58c-.33-1-.5-2.05-.19-3.07l1.07-3.57.47-.56c.54-.14,1.32-.24,1.86,0,.65.29,1.11.97,1.56,1.84,1.55-1.07,2.07-2.72,3.77-2.58.55.05,1.57.47,1.7,1.38.47,3.37-.96,7.18-4.41,8.63,2.37,2.44,4.22,5.62,4.24,9.4l.11,19.35c.01,2.2.46,3.47,2.64,5.26h-12.76c2.22-1.54,3.36-2.91,3.35-5.26l-.15-21.35c-.02-2.95-1.65-5.46-3.96-6.42-7.45-3.09-13.1,7.17-13.12,10.92l-.1,18.2c.27,1.74,2.87,2.32,3.97,3.6l-15.46.24c1.83-1.58,4.84-2.29,4.87-4.68l.28-25.5c.01-1.21.29-1.98,1.14-2.57ZM277.4,320.29c1.07,2.01,2.43.12,4.86.5-.88-1.73-.09-2.83-.31-4.51-.79,1.39-.96,2.85-2.37,3.86-.54.39-1.36.14-1.78-.16l-.41.31Z"/>
        <path class="cls-5" d="M257,316.91c.33,1,.77,1.88,1.61,2.56.08,1.03.33,2.07-.09,3.11-1.94.54-3.54-.63-4.57-2.33l-1.71-2.8c-.36-.58-.52-1.94-.44-2.73.09-.86.99-1.17,1.48-1.18,1.42-.03,3.2,1.77,3.72,3.38Z"/>
        <path class="cls-5" d="M278.98,312.49c-.11.14-.36.42-.47.56-1.51.35-1.57,2.22-1.55,3.57-2.42,1.86-6.38,1.74-8.5-.48.07-1.24-.17-2.52-1.2-3.14l-.25.26.85,2.79c.61,1.98-.91,5.59-2.51,4.96-.35-.14-.74-.6-.92-1.05l-.87-4.99c-.07-.42.26-1.25-.33-1.99-.41.63-.23,1.35-.25,2.05-.04,1.52.42,3.8-.75,5.15s-2.81.1-3.63-.7c-.07-.94-.25-1.63-.59-2.51-.45-1.17-.65-2.85-.21-4.22.38-1.21,1.71-1.62,2.68-1.66l.84.52c.29.18.59.8,1.16.9.5.09.69-.48.53-.74-.1-.16-.23-.33-.54-.3,3.95-1.02,7.44.06,10.37-4.97,2.35,2.94,5,4.03,8.01,4.73-1.25.3-1.68.7-1.87,1.27ZM267.01,312.74c-.24-.72-.97-1.09-1.7-.76l-1.82.82c1.12.39,2.16.19,3.26.19l.26-.24Z"/>
        <path class="cls-3" d="M295.21,321.9c.28,2.12-2.8,5.5-5.34,4.44-.6-.25-.21-1.85-.42-2.46-.66-.18-2.92.63-3.22-.58-1.06-4.3,5.68-8.91,6.93-6.57.88,1.65-.56,3.12-1.06,4.94,1.15-.4,2.97-.93,3.12.23ZM290.03,322.66c.84.82,1.77.26,1.91-.64-.64.44-1.03.51-1.91.64Z"/>
        <path class="cls-3" d="M252.23,317.45l1.71,2.8c-1.05-.39-1.15.79-.39.99.6.79.71,1.66.24,2.28-.31.41-1.34.66-2.04.16-2.7-1.91-3.45-5.7-1.96-6.15,1.07-.32,2.5,1.92,2.44-.09Z"/>
        <path class="cls-2" d="M264.44,319.96l-.57-.02c-.65-.03-1.23,1.24-1.91,1.41-1.44.37-2.6.55-3.46,1.59-.02-.11-.02-.26.02-.35.43-1.03.17-2.08.09-3.11.82.8,2.46,2.04,3.63.7s.72-3.63.75-5.15l.58-.06.87,4.99Z"/>
        <path class="cls-2" d="M258.01,316.96c.34.88.52,1.56.59,2.51-.84-.68-1.28-1.56-1.61-2.56l1.01.05Z"/>
        <g>
          <path class="cls-6" d="M292.99,301.42c-.07.17-.04.44-.02.61-1.14.08-1.11,1.46-1.59,1.9-.59.54-.89,1.55-1.43,2.01l-2.36,1.99c-.59-.48-.56-1.12-.85-2.06-.57,1.9-1.78,3.47-3.39,4.47l-1.25.13c-3.53-.25-7.25-1.9-9.02-5.49l1.32-2.96c.25-.55-.17-1.45,0-1.76.27-.52,1.43-.41,2.03-.35.78.08.81-.79.58-1.12-1.13-1.63-2.75.62-6.04-.67-.39-.15-1.03.21-1.3.3-.34.12-.76.86-.34,1.38.69.08,1.67-.24,2.84.2-.81,1.49-.59,2.48.24,3.72,1.31,1.95-1.85,6.28-7.92,6.58-2.95.15-4.73-2.11-4.67-4.84-.93,1.03-.73,2.39-.36,3.25-.89-1.13-2.42-2.12-3.27-2.95-.37-.36-.97-.95-1.19-1.47l-.84-1.89c-.29-.65-1.64-.41-2.9-.47l2.09-.96c-2.07-3.55-.98-7.57-1.7-11.2-.86-1.44-1.51-3.31-2.06-5.03-.98-3.07-3.4-5.56-3.9-8.9-.11-.7-.66-1.07-1.44-1.09.25.15.36,0,.33-.12.31-.03.69-.58.56-1.13-.93-3.99-1.21-8.01-.12-12.17,6.68,3.35,12,8.05,16.64,13.74,7.19-4.4,16.12-4.06,23.11.24,2.18-4.14,5.59-6.45,8.97-9.07l7.39-4.98c1.39,6.98.95,14.33-2.62,20.27-1.21,2.02-1.83,3.47-2.51,5.77-.52,1.75-2.06,2.82-1.57,5.28.6,3.03-.4,6.26-1.44,8.85ZM250.85,270.94c-.34.02-.46.42-.12.59l.12-.59ZM251.29,271.51l-.18.41,1.02,1.32.31-.64c-.43-.5-.79-.84-1.15-1.09ZM252.78,272.98l-.34.51c1.09,2.99,4.23,4.61,3.7,8.54.68-.98,1.14-2.56.4-3.62l-3.76-5.44ZM293.54,273.33c-3.36,2.83-5.92,6.72-3.09,8.19-1.03-3.36,2.25-5.07,3.09-8.19ZM267.13,290.65c.44-1.28-1.44-5.97-5.36-5.81-2.09.09-4.29,2.64-4.33,3.4-.03.63,1.8,4.64,4.9,4.76,1.54.06,4.17-.51,4.8-2.35ZM288.97,288.25c.03-.83-2.5-4.24-6.06-3.19-2.82.84-3.97,4.94-3.82,5.59.09.38,2.88,3.2,6.05,2.35,1.72-.46,3.8-3.88,3.83-4.75Z"/>
          <path class="cls-2" d="M278.51,313.05l-1.07,3.57h-.49c-.01-1.35.05-3.22,1.55-3.57Z"/>
          <path class="cls-2" d="M278.51,313.05c.11-.14.35-.42.47-.56l-.47.56Z"/>
          <path class="cls-2" d="M282.1,310.47c-.54.58-1.08,1.2-1.26,2.01-.54-.24-1.33-.14-1.86,0,.19-.57.62-.97,1.87-1.27-3.01-.7-5.66-1.78-8.01-4.73-2.94,5.03-6.43,3.95-10.37,4.97l-1.15.14-.84-.52-1.02-2.37c-.37-.85-.57-2.22.36-3.25-.06,2.73,1.72,4.99,4.67,4.84,6.07-.3,9.23-4.62,7.92-6.58-.83-1.24-1.05-2.23-.24-3.72-1.17-.44-2.15-.13-2.84-.2-.42-.52,0-1.26.34-1.38.27-.09.91-.46,1.3-.3,3.3,1.29,4.91-.96,6.04.67.22.32.2,1.19-.58,1.12-.6-.06-1.76-.17-2.03.35-.16.31.26,1.2,0,1.76l-1.32,2.96c1.77,3.59,5.49,5.24,9.02,5.49Z"/>
          <path class="cls-2" d="M287.59,307.93c-.77,1.65-2.44,3.2-4.52,3.73-.14-.7.26-.98.28-1.32,1.61-1,2.82-2.57,3.39-4.47.29.94.26,1.58.85,2.06Z"/>
          <path class="cls-1" d="M288.97,288.25c-.03.87-2.11,4.29-3.83,4.75-3.17.85-5.96-1.97-6.05-2.35-.15-.64,1-4.75,3.82-5.59,3.56-1.06,6.09,2.35,6.06,3.19Z"/>
          <path class="cls-1" d="M267.13,290.65c-.63,1.84-3.26,2.41-4.8,2.35-3.1-.12-4.93-4.13-4.9-4.76.04-.76,2.24-3.32,4.33-3.4,3.93-.16,5.8,4.52,5.36,5.81Z"/>
          <path class="cls-2" d="M293.54,273.33c-.84,3.12-4.13,4.83-3.09,8.19-2.83-1.47-.26-5.35,3.09-8.19Z"/>
          <path class="cls-2" d="M250.72,271.53c-.33-.17-.22-.58.12-.59l.45.57c.36.25.73.59,1.15,1.09l.33.39,3.76,5.44c.73,1.06.28,2.64-.4,3.62.53-3.93-2.61-5.55-3.7-8.54-.07-.2-.18-.25-.31-.26l-1.02-1.32c-.15-.19-.27-.32-.39-.38Z"/>
        </g>
        <path class="cls-1" d="M276.96,316.61h.49c-.31,1.02-.14,2.08.19,3.07.04.11.09.21.17.29.42.3,1.24.54,1.78.16,1.41-1.01,1.57-2.47,2.37-3.86.22,1.68-.58,2.79.31,4.51-2.44-.38-3.79,1.52-4.86-.5l-.28-.02c-5.06-1.24-9.79,1.35-12.98,5.65-.68-2.43-.29-4.19-.28-5.99l.57.02c.18.45.57.91.92,1.05,1.59.63,3.11-2.98,2.51-4.96.26-.05.49-.02.59.09,2.12,2.22,6.08,2.34,8.5.48Z"/>
        <path class="cls-2" d="M268.46,316.14c-.11-.11-.34-.14-.59-.09l-.85-2.79c-.03-.09-.13-.22-.26-.27-1.1,0-2.14.2-3.26-.19l1.82-.82c.73-.33,1.46.04,1.7.76.03.1.14.18.25.25,1.03.63,1.27,1.9,1.2,3.14Z"/>
        <path class="cls-1" d="M262.47,311.47c.31-.03.44.14.54.3.16.26-.03.83-.53.74-.58-.1-.87-.72-1.16-.9l1.15-.14Z"/>
        <path class="cls-1" d="M263.56,314.97l-.58.06c.02-.7-.16-1.42.25-2.05.59.75.26,1.57.33,1.99Z"/>
        <path class="cls-1" d="M290.03,322.66c.87-.13,1.27-.2,1.91-.64-.14.91-1.06,1.46-1.91.64Z"/>
      </g>
    </g>
  </g>
</svg>